# xmcd
#
# Track frame offsets:
#	150
#	13443
#	25914
#	41037
#	51991
#	70466
#	90801
#	104256
#	115228
#	126815
#	142731
#	154497
#	167029
#	180496
#	192043
#	202000
#	217242
#	227733
#	241128
#	255891
#
# Disc length: 3640 seconds
#
# Revision: 0
# Processed by: cddbd v1.4PL0 Copyright (c) Steve Scherf et al.
# Submitted via: dBpowerAMP V4.0
#
DISCID=170e3614
DTITLE=Kenny Rogers - The Gold Collection
DYEAR=2002
DGENRE=Country
TTITLE0=Ruby Don't Take Your Love To Town
TTITLE1=Ruben James
TTITLE2=Conditions (Just Dropped In)
TTITLE3=She Even Woke Me Up To Say Goodbye
TTITLE4=The King of Oak Street
TTITLE5=Lay It Down
TTITLE6=A Stranger In My Place
TTITLE7=Always Leaving, Always Gone
TTITLE8=Poem For My Little Lady
TTITLE9=Tulsa Turnaround
TTITLE10=Elvira
TTITLE11=Love Woman
TTITLE12=Shine On Ruby Mountain
TTITLE13=Me and Bobby McGee
TTITLE14=Where Does Rosie Go
TTITLE15=For The Good Times
TTITLE16=Trying Just As Hard
TTITLE17=It's Gonna Get Better
TTITLE18=After All (I Live My Life)
TTITLE19=Something's Burning
EXTD=St. Clair Entertainment Group Inc. Compilation. Seems to be less than create quality.
EXTT0=
EXTT1=
EXTT2=
EXTT3=
EXTT4=
EXTT5=
EXTT6=
EXTT7=
EXTT8=
EXTT9=
EXTT10=
EXTT11=
EXTT12=
EXTT13=
EXTT14=
EXTT15=
EXTT16=
EXTT17=
EXTT18=
EXTT19=
PLAYORDER=
